<svg xmlns="http://www.w3.org/2000/svg" xmlns:xlink="http://www.w3.org/1999/xlink" viewBox="0 0 50 50" version="1.1">
    <g id="location-svg">
        <path style=" " d="M 25 0.0625 C 17.320313 0.0625 11.0625 6.320313 11.0625 14 C 11.0625 26.246094 23.710938 42.863281 24.25 43.5625 C 24.425781 43.792969 24.710938 43.9375 25 43.9375 C 25.289063 43.9375 25.574219 43.792969 25.75 43.5625 C 26.289063 42.851563 38.9375 25.964844 38.9375 14 C 38.9375 6.320313 32.679688 0.0625 25 0.0625 Z M 25 9 C 28.3125 9 31 11.6875 31 15 C 31 18.3125 28.3125 21 25 21 C 21.6875 21 19 18.3125 19 15 C 19 11.6875 21.6875 9 25 9 Z M 15.71875 34.0625 C 7.824219 35.15625 1.351563 37.664063 1.03125 41.4375 C 1.011719 41.519531 1 41.601563 1 41.6875 C 1 47.078125 13.363281 50 25 50 C 36.421875 50 48.558594 47.199219 49 42 C 49.019531 41.921875 49.03125 41.839844 49.03125 41.75 C 49.03125 37.800781 42.375 35.183594 34.25 34.0625 C 31.148438 39.621094 28.007813 43.867188 27.34375 44.75 C 26.796875 45.476563 25.921875 45.933594 25 45.9375 C 24.09375 45.9375 23.234375 45.496094 22.6875 44.78125 C 22.410156 44.421875 19.03125 40 15.71875 34.0625 Z "></path>
    </g>
</svg>
