<svg xmlns="http://www.w3.org/2000/svg" xmlns:xlink="http://www.w3.org/1999/xlink" viewBox="0 0 50 50" version="1.1">
    <g id="title-svg">
        <path style=" " d="M 2 10 C 1.449219 10 1 10.449219 1 11 L 1 39 C 1 39.554688 1.449219 40 2 40 L 9 40 C 9.550781 40 10 39.554688 10 39 L 10 29 L 20 29 L 20 39 C 20 39.554688 20.449219 40 21 40 L 28 40 C 28.554688 40 29 39.554688 29 39 L 29 11 C 29 10.449219 28.554688 10 28 10 L 21 10 C 20.449219 10 20 10.449219 20 11 L 20 21 L 10 21 L 10 11 C 10 10.449219 9.550781 10 9 10 Z M 41 10 C 40.800781 10 40.601563 10.046875 40.4375 10.15625 L 32.4375 15.03125 C 32.160156 15.21875 32 15.542969 32 15.875 L 32 22 C 32 22.367188 32.207031 22.699219 32.53125 22.875 C 32.855469 23.050781 33.253906 23.046875 33.5625 22.84375 L 40 19.03125 L 40 39 C 40 39.554688 40.445313 40 41 40 L 48 40 C 48.554688 40 49 39.554688 49 39 L 49 11 C 49 10.449219 48.554688 10 48 10 Z "></path>
    </g>
</svg>
